<svg width="148" height="25" viewBox="0 0 148 25" fill="none" xmlns="http://www.w3.org/2000/svg">
<path d="M0.0227273 24V0.727272H15.4318V4.78409H4.94318V10.3295H14.4091V14.3864H4.94318V24H0.0227273ZM23.4091 24.3295C22.2955 24.3295 21.303 24.1364 20.4318 23.75C19.5606 23.3561 18.8712 22.7765 18.3636 22.0114C17.8636 21.2386 17.6136 20.2765 17.6136 19.125C17.6136 18.1553 17.7917 17.3409 18.1477 16.6818C18.5038 16.0227 18.9886 15.4924 19.6023 15.0909C20.2159 14.6894 20.9129 14.3864 21.6932 14.1818C22.4811 13.9773 23.3068 13.8333 24.1705 13.75C25.1856 13.6439 26.0038 13.5455 26.625 13.4545C27.2462 13.3561 27.697 13.2121 27.9773 13.0227C28.2576 12.8333 28.3977 12.553 28.3977 12.1818V12.1136C28.3977 11.3939 28.1705 10.8371 27.7159 10.4432C27.2689 10.0492 26.6326 9.85227 25.8068 9.85227C24.9356 9.85227 24.2424 10.0455 23.7273 10.4318C23.2121 10.8106 22.8712 11.2879 22.7045 11.8636L18.2273 11.5C18.4545 10.4394 18.9015 9.52273 19.5682 8.75C20.2348 7.9697 21.0947 7.37121 22.1477 6.95454C23.2083 6.5303 24.4356 6.31818 25.8295 6.31818C26.7992 6.31818 27.7273 6.43182 28.6136 6.65909C29.5076 6.88636 30.2992 7.23864 30.9886 7.71591C31.6856 8.19318 32.2348 8.80682 32.6364 9.55682C33.0379 10.2992 33.2386 11.1894 33.2386 12.2273V24H28.6477V21.5795H28.5114C28.2311 22.125 27.8561 22.6061 27.3864 23.0227C26.9167 23.4318 26.3523 23.7538 25.6932 23.9886C25.0341 24.2159 24.2727 24.3295 23.4091 24.3295ZM24.7955 20.9886C25.5076 20.9886 26.1364 20.8485 26.6818 20.5682C27.2273 20.2803 27.6553 19.8939 27.9659 19.4091C28.2765 18.9242 28.4318 18.375 28.4318 17.7614V15.9091C28.2803 16.0076 28.072 16.0985 27.8068 16.1818C27.5492 16.2576 27.2576 16.3295 26.9318 16.3977C26.6061 16.4583 26.2803 16.5152 25.9545 16.5682C25.6288 16.6136 25.3333 16.6553 25.0682 16.6932C24.5 16.7765 24.0038 16.9091 23.5795 17.0909C23.1553 17.2727 22.8258 17.5189 22.5909 17.8295C22.3561 18.1326 22.2386 18.5114 22.2386 18.9659C22.2386 19.625 22.4773 20.1288 22.9545 20.4773C23.4394 20.8182 24.053 20.9886 24.7955 20.9886ZM51.517 11.5227L47.0852 11.7955C47.0095 11.4167 46.8466 11.0758 46.5966 10.7727C46.3466 10.4621 46.017 10.2159 45.608 10.0341C45.2064 9.8447 44.7254 9.75 44.1648 9.75C43.4148 9.75 42.7822 9.90909 42.267 10.2273C41.7519 10.5379 41.4943 10.9545 41.4943 11.4773C41.4943 11.8939 41.661 12.2462 41.9943 12.5341C42.3277 12.822 42.8996 13.053 43.7102 13.2273L46.8693 13.8636C48.5663 14.2121 49.8314 14.7727 50.6648 15.5455C51.4981 16.3182 51.9148 17.3333 51.9148 18.5909C51.9148 19.7348 51.5777 20.7386 50.9034 21.6023C50.2367 22.4659 49.3201 23.1402 48.1534 23.625C46.9943 24.1023 45.6572 24.3409 44.142 24.3409C41.8314 24.3409 39.9905 23.8598 38.6193 22.8977C37.2557 21.928 36.4564 20.6098 36.2216 18.9432L40.983 18.6932C41.1269 19.3977 41.4754 19.9356 42.0284 20.3068C42.5814 20.6705 43.2898 20.8523 44.1534 20.8523C45.0019 20.8523 45.6837 20.6894 46.1989 20.3636C46.7216 20.0303 46.9867 19.6023 46.9943 19.0795C46.9867 18.6402 46.8011 18.2803 46.4375 18C46.0739 17.7121 45.5133 17.4924 44.7557 17.3409L41.733 16.7386C40.0284 16.3977 38.7595 15.8068 37.9261 14.9659C37.1004 14.125 36.6875 13.053 36.6875 11.75C36.6875 10.6288 36.9905 9.66288 37.5966 8.85227C38.2102 8.04167 39.0701 7.41667 40.1761 6.97727C41.2898 6.53788 42.5928 6.31818 44.0852 6.31818C46.2898 6.31818 48.0246 6.78409 49.2898 7.71591C50.5625 8.64773 51.3049 9.91667 51.517 11.5227ZM64.2472 6.54545V10.1818H53.7358V6.54545H64.2472ZM56.1222 2.36364H60.9631V18.6364C60.9631 19.0833 61.0313 19.4318 61.1676 19.6818C61.304 19.9242 61.4934 20.0947 61.7358 20.1932C61.9858 20.2917 62.2737 20.3409 62.5994 20.3409C62.8267 20.3409 63.054 20.322 63.2812 20.2841C63.5085 20.2386 63.6828 20.2045 63.804 20.1818L64.5653 23.7841C64.3229 23.8598 63.982 23.947 63.5426 24.0455C63.1032 24.1515 62.5691 24.2159 61.9403 24.2386C60.7737 24.2841 59.7509 24.1288 58.8722 23.7727C58.0009 23.4167 57.3229 22.8636 56.8381 22.1136C56.3532 21.3636 56.1146 20.4167 56.1222 19.2727V2.36364Z" fill="#3C3C3C"/>
<path d="M74.8977 24V0.727272H90.3068V4.78409H79.8182V10.3295H89.2841V14.3864H79.8182V24H74.8977ZM100.131 24.3409C98.3655 24.3409 96.839 23.9659 95.5511 23.2159C94.2708 22.4583 93.2822 21.4053 92.5852 20.0568C91.8883 18.7008 91.5398 17.1288 91.5398 15.3409C91.5398 13.5379 91.8883 11.9621 92.5852 10.6136C93.2822 9.25758 94.2708 8.20454 95.5511 7.45454C96.839 6.69697 98.3655 6.31818 100.131 6.31818C101.896 6.31818 103.419 6.69697 104.699 7.45454C105.987 8.20454 106.979 9.25758 107.676 10.6136C108.373 11.9621 108.722 13.5379 108.722 15.3409C108.722 17.1288 108.373 18.7008 107.676 20.0568C106.979 21.4053 105.987 22.4583 104.699 23.2159C103.419 23.9659 101.896 24.3409 100.131 24.3409ZM100.153 20.5909C100.956 20.5909 101.627 20.3636 102.165 19.9091C102.703 19.447 103.108 18.8182 103.381 18.0227C103.661 17.2273 103.801 16.322 103.801 15.3068C103.801 14.2917 103.661 13.3864 103.381 12.5909C103.108 11.7955 102.703 11.1667 102.165 10.7045C101.627 10.2424 100.956 10.0114 100.153 10.0114C99.3428 10.0114 98.661 10.2424 98.108 10.7045C97.5625 11.1667 97.1496 11.7955 96.8693 12.5909C96.5966 13.3864 96.4602 14.2917 96.4602 15.3068C96.4602 16.322 96.5966 17.2273 96.8693 18.0227C97.1496 18.8182 97.5625 19.447 98.108 19.9091C98.661 20.3636 99.3428 20.5909 100.153 20.5909ZM119.756 24.3409C117.991 24.3409 116.464 23.9659 115.176 23.2159C113.896 22.4583 112.907 21.4053 112.21 20.0568C111.513 18.7008 111.165 17.1288 111.165 15.3409C111.165 13.5379 111.513 11.9621 112.21 10.6136C112.907 9.25758 113.896 8.20454 115.176 7.45454C116.464 6.69697 117.991 6.31818 119.756 6.31818C121.521 6.31818 123.044 6.69697 124.324 7.45454C125.612 8.20454 126.604 9.25758 127.301 10.6136C127.998 11.9621 128.347 13.5379 128.347 15.3409C128.347 17.1288 127.998 18.7008 127.301 20.0568C126.604 21.4053 125.612 22.4583 124.324 23.2159C123.044 23.9659 121.521 24.3409 119.756 24.3409ZM119.778 20.5909C120.581 20.5909 121.252 20.3636 121.79 19.9091C122.328 19.447 122.733 18.8182 123.006 18.0227C123.286 17.2273 123.426 16.322 123.426 15.3068C123.426 14.2917 123.286 13.3864 123.006 12.5909C122.733 11.7955 122.328 11.1667 121.79 10.7045C121.252 10.2424 120.581 10.0114 119.778 10.0114C118.968 10.0114 118.286 10.2424 117.733 10.7045C117.188 11.1667 116.775 11.7955 116.494 12.5909C116.222 13.3864 116.085 14.2917 116.085 15.3068C116.085 16.322 116.222 17.2273 116.494 18.0227C116.775 18.8182 117.188 19.447 117.733 19.9091C118.286 20.3636 118.968 20.5909 119.778 20.5909ZM137.926 24.2841C136.6 24.2841 135.4 23.9432 134.324 23.2614C133.256 22.572 132.407 21.5606 131.778 20.2273C131.157 18.8864 130.847 17.2424 130.847 15.2955C130.847 13.2955 131.169 11.6326 131.812 10.3068C132.456 8.97348 133.313 7.97727 134.381 7.31818C135.456 6.65152 136.634 6.31818 137.915 6.31818C138.892 6.31818 139.706 6.48485 140.358 6.81818C141.017 7.14394 141.547 7.55303 141.949 8.04545C142.358 8.5303 142.669 9.00758 142.881 9.47727H143.028V0.727272H147.858V24H143.085V21.2045H142.881C142.653 21.6894 142.331 22.1705 141.915 22.6477C141.506 23.1174 140.972 23.5076 140.312 23.8182C139.661 24.1288 138.866 24.2841 137.926 24.2841ZM139.46 20.4318C140.241 20.4318 140.9 20.2197 141.438 19.7955C141.983 19.3636 142.4 18.7614 142.688 17.9886C142.983 17.2159 143.131 16.3106 143.131 15.2727C143.131 14.2348 142.987 13.3333 142.699 12.5682C142.411 11.803 141.994 11.2121 141.449 10.7955C140.903 10.3788 140.241 10.1705 139.46 10.1705C138.665 10.1705 137.994 10.3864 137.449 10.8182C136.903 11.25 136.491 11.8485 136.21 12.6136C135.93 13.3788 135.79 14.2652 135.79 15.2727C135.79 16.2879 135.93 17.1856 136.21 17.9659C136.498 18.7386 136.911 19.3447 137.449 19.7841C137.994 20.2159 138.665 20.4318 139.46 20.4318Z" fill="#FCC647"/>
</svg>
